<svg xmlns="http://www.w3.org/2000/svg" xmlns:xlink="http://www.w3.org/1999/xlink" version="1.1" style="enable-background:new 0 0 17.12 17.12;" xml:space="preserve" width="17.12" height="17.12"><rect id="backgroundrect" width="100%" height="100%" x="0" y="0" fill="none" stroke="none"/>
















<g class="currentLayer" style=""><title>Layer 1</title><g id="svg_1" class="selected" fill="#ffffff" fill-opacity="1">
	<g id="svg_2" fill="#ffffff" fill-opacity="1">
		<g id="svg_3" fill="#ffffff" fill-opacity="1">
			<path style="" d="M8.661,0.001c0.006,0,0.01,0,0.01,0c0.007,0,0.007,0,0.011,0c0.002,0,0.007,0,0.009,0     c0,0,0,0,0.004,0c0.019-0.002,0.027,0,0.039,0c2.213,0,4.367,0.876,5.955,2.42l1.758-1.776c0.081-0.084,0.209-0.11,0.314-0.065     c0.109,0.044,0.186,0.152,0.186,0.271l-0.294,6.066h-5.699c-0.003,0-0.011,0-0.016,0c-0.158,0-0.291-0.131-0.291-0.296     c0-0.106,0.059-0.201,0.146-0.252l1.73-1.751c-1.026-0.988-2.36-1.529-3.832-1.529c-2.993,0.017-5.433,2.47-5.433,5.51     c0.023,2.978,2.457,5.4,5.481,5.422c1.972-0.106,3.83-1.278,4.719-3.221l2.803,1.293l-0.019,0.039     c-1.92,3.713-4.946,5.277-8.192,4.944c-4.375-0.348-7.848-4.013-7.878-8.52C0.171,3.876,3.976,0.042,8.661,0.001z" id="svg_4" fill="#ffffff" fill-opacity="1"/>
		</g>
	</g>
</g><g id="svg_5">
</g><g id="svg_6">
</g><g id="svg_7">
</g><g id="svg_8">
</g><g id="svg_9">
</g><g id="svg_10">
</g><g id="svg_11">
</g><g id="svg_12">
</g><g id="svg_13">
</g><g id="svg_14">
</g><g id="svg_15">
</g><g id="svg_16">
</g><g id="svg_17">
</g><g id="svg_18">
</g><g id="svg_19">
</g></g></svg>